<mxfile host="app.diagrams.net" modified="2020-11-23T09:54:43.674Z" agent="5.0 (Windows NT 10.0; Win64; x64) AppleWebKit/537.36 (KHTML, like Gecko) Chrome/86.0.4240.198 Safari/537.36" etag="kIqoLLQ9B6lEXm6GW32G" version="13.10.1" type="github">
  <diagram id="kgpKYQtTHZ0yAKxKKP6v" name="Page-1">
    <mxGraphModel dx="1038" dy="585" grid="1" gridSize="10" guides="1" tooltips="1" connect="1" arrows="1" fold="1" page="1" pageScale="1" pageWidth="850" pageHeight="1100" math="0" shadow="0">
      <root>
        <mxCell id="0" />
        <mxCell id="1" parent="0" />
        <mxCell id="3nuBFxr9cyL0pnOWT2aG-1" value="web app" style="shape=umlLifeline;perimeter=lifelinePerimeter;container=1;collapsible=0;recursiveResize=0;rounded=0;shadow=0;strokeWidth=1;fillColor=#ffe6cc;strokeColor=#D79B00;" parent="1" vertex="1">
          <mxGeometry x="260" y="80" width="100" height="450" as="geometry" />
        </mxCell>
        <mxCell id="3nuBFxr9cyL0pnOWT2aG-2" value="" style="points=[];perimeter=orthogonalPerimeter;rounded=0;shadow=0;strokeWidth=1;strokeColor=#D79B00;" parent="3nuBFxr9cyL0pnOWT2aG-1" vertex="1">
          <mxGeometry x="45" y="70" width="10" height="380" as="geometry" />
        </mxCell>
        <mxCell id="3nuBFxr9cyL0pnOWT2aG-4" value="" style="points=[];perimeter=orthogonalPerimeter;rounded=0;shadow=0;strokeWidth=1;fontSize=18;strokeColor=#D79B00;" parent="3nuBFxr9cyL0pnOWT2aG-1" vertex="1">
          <mxGeometry x="50" y="120" width="10" height="80" as="geometry" />
        </mxCell>
        <mxCell id="3nuBFxr9cyL0pnOWT2aG-5" value="API" style="shape=umlLifeline;perimeter=lifelinePerimeter;container=1;collapsible=0;recursiveResize=0;rounded=0;shadow=0;strokeWidth=1;fillColor=#ffe6cc;strokeColor=#D79B00;" parent="1" vertex="1">
          <mxGeometry x="440" y="80" width="100" height="450" as="geometry" />
        </mxCell>
        <mxCell id="3nuBFxr9cyL0pnOWT2aG-6" value="" style="points=[];perimeter=orthogonalPerimeter;rounded=0;shadow=0;strokeWidth=1;strokeColor=#D79B00;" parent="3nuBFxr9cyL0pnOWT2aG-5" vertex="1">
          <mxGeometry x="45" y="70" width="10" height="380" as="geometry" />
        </mxCell>
        <mxCell id="4AZCgMb4vHLecGoA0_im-1" value="Browser" style="shape=umlLifeline;perimeter=lifelinePerimeter;container=1;collapsible=0;recursiveResize=0;rounded=0;shadow=0;strokeWidth=1;fillColor=#ffe6cc;strokeColor=#D79B00;" vertex="1" parent="1">
          <mxGeometry x="80" y="80" width="100" height="450" as="geometry" />
        </mxCell>
        <mxCell id="4AZCgMb4vHLecGoA0_im-2" value="" style="points=[];perimeter=orthogonalPerimeter;rounded=0;shadow=0;strokeWidth=1;strokeColor=#D79B00;" vertex="1" parent="4AZCgMb4vHLecGoA0_im-1">
          <mxGeometry x="46" y="80" width="10" height="370" as="geometry" />
        </mxCell>
        <mxCell id="4AZCgMb4vHLecGoA0_im-3" value="Database" style="shape=umlLifeline;perimeter=lifelinePerimeter;container=1;collapsible=0;recursiveResize=0;rounded=0;shadow=0;strokeWidth=1;fillColor=#ffe6cc;strokeColor=#D79B00;" vertex="1" parent="1">
          <mxGeometry x="640" y="80" width="100" height="450" as="geometry" />
        </mxCell>
        <mxCell id="4AZCgMb4vHLecGoA0_im-4" value="" style="points=[];perimeter=orthogonalPerimeter;rounded=0;shadow=0;strokeWidth=1;strokeColor=#D79B00;" vertex="1" parent="4AZCgMb4vHLecGoA0_im-3">
          <mxGeometry x="45" y="80" width="10" height="370" as="geometry" />
        </mxCell>
        <mxCell id="4AZCgMb4vHLecGoA0_im-5" value="&lt;font style=&quot;font-size: 36px&quot;&gt;Platform Budua&lt;/font&gt;" style="text;html=1;align=center;verticalAlign=middle;resizable=0;points=[];autosize=1;strokeColor=#D79B00;" vertex="1" parent="1">
          <mxGeometry x="290" y="30" width="260" height="30" as="geometry" />
        </mxCell>
        <mxCell id="4AZCgMb4vHLecGoA0_im-9" value="" style="group;fontSize=18;strokeColor=#D79B00;" vertex="1" connectable="0" parent="1">
          <mxGeometry x="135" y="160" width="140" height="30" as="geometry" />
        </mxCell>
        <mxCell id="4AZCgMb4vHLecGoA0_im-7" value="" style="endArrow=classic;html=1;fontSize=18;strokeColor=#D79B00;" edge="1" parent="4AZCgMb4vHLecGoA0_im-9" target="3nuBFxr9cyL0pnOWT2aG-1">
          <mxGeometry width="50" height="50" relative="1" as="geometry">
            <mxPoint y="30" as="sourcePoint" />
            <mxPoint x="90" y="-50" as="targetPoint" />
            <Array as="points" />
          </mxGeometry>
        </mxCell>
        <mxCell id="4AZCgMb4vHLecGoA0_im-8" value="login request" style="text;html=1;align=center;verticalAlign=middle;resizable=0;points=[];autosize=1;fontSize=18;strokeColor=#D79B00;" vertex="1" parent="4AZCgMb4vHLecGoA0_im-9">
          <mxGeometry x="20" y="-5" width="120" height="30" as="geometry" />
        </mxCell>
        <mxCell id="4AZCgMb4vHLecGoA0_im-10" value="login success" style="whiteSpace=wrap;html=1;fontSize=18;fillColor=#ffe6cc;strokeColor=#D79B00;" vertex="1" parent="1">
          <mxGeometry x="40" y="180" width="80" height="90" as="geometry" />
        </mxCell>
        <mxCell id="4AZCgMb4vHLecGoA0_im-12" value="" style="endArrow=classic;html=1;fontSize=18;strokeColor=#D79B00;" edge="1" parent="1" source="3nuBFxr9cyL0pnOWT2aG-1" target="3nuBFxr9cyL0pnOWT2aG-5">
          <mxGeometry width="50" height="50" relative="1" as="geometry">
            <mxPoint x="340" y="220" as="sourcePoint" />
            <mxPoint x="390" y="170" as="targetPoint" />
            <Array as="points">
              <mxPoint x="370" y="190" />
            </Array>
          </mxGeometry>
        </mxCell>
        <mxCell id="4AZCgMb4vHLecGoA0_im-14" value="" style="endArrow=classic;html=1;fontSize=18;strokeColor=#D79B00;" edge="1" parent="1">
          <mxGeometry width="50" height="50" relative="1" as="geometry">
            <mxPoint x="500" y="190" as="sourcePoint" />
            <mxPoint x="680" y="190" as="targetPoint" />
            <Array as="points">
              <mxPoint x="560.5" y="190" />
            </Array>
          </mxGeometry>
        </mxCell>
        <mxCell id="4AZCgMb4vHLecGoA0_im-15" value="Label" style="endArrow=classic;html=1;fontSize=18;strokeColor=#D79B00;" edge="1" parent="1" source="4AZCgMb4vHLecGoA0_im-3">
          <mxGeometry x="0.0977" relative="1" as="geometry">
            <mxPoint x="330" y="260" as="sourcePoint" />
            <mxPoint x="490" y="260" as="targetPoint" />
            <mxPoint as="offset" />
          </mxGeometry>
        </mxCell>
        <mxCell id="4AZCgMb4vHLecGoA0_im-16" value="api" style="edgeLabel;resizable=0;html=1;align=center;verticalAlign=middle;fontSize=18;strokeColor=#D79B00;" connectable="0" vertex="1" parent="4AZCgMb4vHLecGoA0_im-15">
          <mxGeometry relative="1" as="geometry" />
        </mxCell>
        <mxCell id="4AZCgMb4vHLecGoA0_im-17" value="Source" style="edgeLabel;resizable=0;html=1;align=left;verticalAlign=bottom;fontSize=18;strokeColor=#D79B00;" connectable="0" vertex="1" parent="4AZCgMb4vHLecGoA0_im-15">
          <mxGeometry x="-1" relative="1" as="geometry" />
        </mxCell>
        <mxCell id="4AZCgMb4vHLecGoA0_im-18" value="Target" style="edgeLabel;resizable=0;html=1;align=right;verticalAlign=bottom;fontSize=18;strokeColor=#D79B00;" connectable="0" vertex="1" parent="4AZCgMb4vHLecGoA0_im-15">
          <mxGeometry x="1" relative="1" as="geometry" />
        </mxCell>
        <mxCell id="4AZCgMb4vHLecGoA0_im-19" value="Label" style="endArrow=classic;html=1;fontSize=18;strokeColor=#D79B00;" edge="1" parent="1">
          <mxGeometry relative="1" as="geometry">
            <mxPoint x="509.5" y="260" as="sourcePoint" />
            <mxPoint x="310" y="260" as="targetPoint" />
          </mxGeometry>
        </mxCell>
        <mxCell id="4AZCgMb4vHLecGoA0_im-21" value="Source" style="edgeLabel;resizable=0;html=1;align=left;verticalAlign=bottom;fontSize=18;strokeColor=#D79B00;" connectable="0" vertex="1" parent="4AZCgMb4vHLecGoA0_im-19">
          <mxGeometry x="-1" relative="1" as="geometry" />
        </mxCell>
        <mxCell id="4AZCgMb4vHLecGoA0_im-22" value="Target" style="edgeLabel;resizable=0;html=1;align=right;verticalAlign=bottom;fontSize=18;strokeColor=#D79B00;" connectable="0" vertex="1" parent="4AZCgMb4vHLecGoA0_im-19">
          <mxGeometry x="1" relative="1" as="geometry" />
        </mxCell>
        <mxCell id="4AZCgMb4vHLecGoA0_im-23" value="Label" style="endArrow=classic;html=1;fontSize=18;strokeColor=#D79B00;" edge="1" parent="1">
          <mxGeometry relative="1" as="geometry">
            <mxPoint x="334.5" y="260" as="sourcePoint" />
            <mxPoint x="135" y="260" as="targetPoint" />
          </mxGeometry>
        </mxCell>
        <mxCell id="4AZCgMb4vHLecGoA0_im-24" value="Label" style="edgeLabel;resizable=0;html=1;align=center;verticalAlign=middle;fontSize=18;strokeColor=#D79B00;" connectable="0" vertex="1" parent="4AZCgMb4vHLecGoA0_im-23">
          <mxGeometry relative="1" as="geometry" />
        </mxCell>
        <mxCell id="4AZCgMb4vHLecGoA0_im-25" value="Source" style="edgeLabel;resizable=0;html=1;align=left;verticalAlign=bottom;fontSize=18;strokeColor=#D79B00;" connectable="0" vertex="1" parent="4AZCgMb4vHLecGoA0_im-23">
          <mxGeometry x="-1" relative="1" as="geometry" />
        </mxCell>
        <mxCell id="4AZCgMb4vHLecGoA0_im-26" value="Target" style="edgeLabel;resizable=0;html=1;align=right;verticalAlign=bottom;fontSize=18;strokeColor=#D79B00;" connectable="0" vertex="1" parent="4AZCgMb4vHLecGoA0_im-23">
          <mxGeometry x="1" relative="1" as="geometry" />
        </mxCell>
        <mxCell id="4AZCgMb4vHLecGoA0_im-27" value="request api" style="text;html=1;align=center;verticalAlign=middle;resizable=0;points=[];autosize=1;fontSize=18;strokeColor=#D79B00;" vertex="1" parent="1">
          <mxGeometry x="355" y="160" width="100" height="30" as="geometry" />
        </mxCell>
        <mxCell id="4AZCgMb4vHLecGoA0_im-28" value="request api" style="text;html=1;align=center;verticalAlign=middle;resizable=0;points=[];autosize=1;fontSize=18;strokeColor=#D79B00;" vertex="1" parent="1">
          <mxGeometry x="530" y="155" width="100" height="30" as="geometry" />
        </mxCell>
        <mxCell id="4AZCgMb4vHLecGoA0_im-30" value="" style="edgeStyle=none;orthogonalLoop=1;jettySize=auto;html=1;fontSize=18;strokeColor=#D79B00;" edge="1" parent="1" source="4AZCgMb4vHLecGoA0_im-29" target="4AZCgMb4vHLecGoA0_im-3">
          <mxGeometry relative="1" as="geometry" />
        </mxCell>
        <mxCell id="4AZCgMb4vHLecGoA0_im-29" value="&amp;nbsp;" style="text;html=1;align=center;verticalAlign=middle;resizable=0;points=[];autosize=1;fontSize=18;strokeColor=#D79B00;" vertex="1" parent="1">
          <mxGeometry x="570" y="245" width="20" height="30" as="geometry" />
        </mxCell>
        <mxCell id="4AZCgMb4vHLecGoA0_im-36" value="shopify" style="whiteSpace=wrap;html=1;shadow=1;strokeColor=#d79b00;fontSize=18;fillColor=#ffe6cc;" vertex="1" parent="1">
          <mxGeometry x="220" y="320" width="70" height="100" as="geometry" />
        </mxCell>
        <mxCell id="4AZCgMb4vHLecGoA0_im-37" value="" style="endArrow=classic;html=1;shadow=1;strokeColor=#D79B00;fontSize=18;" edge="1" parent="1" target="3nuBFxr9cyL0pnOWT2aG-6">
          <mxGeometry relative="1" as="geometry">
            <mxPoint x="300" y="329.5" as="sourcePoint" />
            <mxPoint x="400" y="329.5" as="targetPoint" />
            <Array as="points">
              <mxPoint x="320" y="329.5" />
              <mxPoint x="350" y="329.5" />
            </Array>
          </mxGeometry>
        </mxCell>
        <mxCell id="4AZCgMb4vHLecGoA0_im-38" value="" style="shape=message;html=1;outlineConnect=0;strokeColor=#B3FF66;" vertex="1" parent="4AZCgMb4vHLecGoA0_im-37">
          <mxGeometry width="20" height="14" relative="1" as="geometry">
            <mxPoint x="-10" y="-7" as="offset" />
          </mxGeometry>
        </mxCell>
        <mxCell id="4AZCgMb4vHLecGoA0_im-39" value="" style="endArrow=classic;html=1;shadow=1;strokeColor=#D79B00;fontSize=18;" edge="1" parent="1">
          <mxGeometry relative="1" as="geometry">
            <mxPoint x="500" y="329.5" as="sourcePoint" />
            <mxPoint x="685" y="329.5" as="targetPoint" />
            <Array as="points">
              <mxPoint x="520" y="329.5" />
              <mxPoint x="550" y="329.5" />
            </Array>
          </mxGeometry>
        </mxCell>
        <mxCell id="4AZCgMb4vHLecGoA0_im-40" value="" style="shape=message;html=1;outlineConnect=0;strokeColor=#B3FF66;" vertex="1" parent="4AZCgMb4vHLecGoA0_im-39">
          <mxGeometry width="20" height="14" relative="1" as="geometry">
            <mxPoint x="-10" y="-7" as="offset" />
          </mxGeometry>
        </mxCell>
        <mxCell id="4AZCgMb4vHLecGoA0_im-43" value="" style="endArrow=classic;html=1;shadow=1;strokeColor=#D79B00;fontSize=18;" edge="1" parent="1">
          <mxGeometry relative="1" as="geometry">
            <mxPoint x="590" y="380" as="sourcePoint" />
            <mxPoint x="490" y="380" as="targetPoint" />
            <Array as="points">
              <mxPoint x="610" y="380" />
              <mxPoint x="640" y="380" />
              <mxPoint x="680" y="380" />
            </Array>
          </mxGeometry>
        </mxCell>
        <mxCell id="4AZCgMb4vHLecGoA0_im-44" value="" style="shape=message;html=1;outlineConnect=0;strokeColor=#B3FF66;" vertex="1" parent="4AZCgMb4vHLecGoA0_im-43">
          <mxGeometry width="20" height="14" relative="1" as="geometry">
            <mxPoint x="-10" y="-7" as="offset" />
          </mxGeometry>
        </mxCell>
        <mxCell id="4AZCgMb4vHLecGoA0_im-45" value="" style="endArrow=classic;html=1;shadow=1;strokeColor=#D79B00;fontSize=18;" edge="1" parent="1">
          <mxGeometry relative="1" as="geometry">
            <mxPoint x="400" y="380" as="sourcePoint" />
            <mxPoint x="300" y="380" as="targetPoint" />
            <Array as="points">
              <mxPoint x="420" y="380" />
              <mxPoint x="450" y="380" />
              <mxPoint x="490" y="380" />
            </Array>
          </mxGeometry>
        </mxCell>
        <mxCell id="4AZCgMb4vHLecGoA0_im-46" value="" style="shape=message;html=1;outlineConnect=0;strokeColor=#B3FF66;" vertex="1" parent="4AZCgMb4vHLecGoA0_im-45">
          <mxGeometry width="20" height="14" relative="1" as="geometry">
            <mxPoint x="-10" y="-7" as="offset" />
          </mxGeometry>
        </mxCell>
        <mxCell id="4AZCgMb4vHLecGoA0_im-48" value="create miniApp" style="whiteSpace=wrap;html=1;shadow=1;strokeColor=#d79b00;fontSize=18;fillColor=#ffe6cc;" vertex="1" parent="1">
          <mxGeometry x="220" y="430" width="70" height="80" as="geometry" />
        </mxCell>
        <mxCell id="4AZCgMb4vHLecGoA0_im-49" value="Label" style="endArrow=classic;html=1;shadow=1;strokeColor=#D79B00;fontSize=18;" edge="1" parent="1">
          <mxGeometry relative="1" as="geometry">
            <mxPoint x="325" y="459.5" as="sourcePoint" />
            <mxPoint x="485" y="459.5" as="targetPoint" />
          </mxGeometry>
        </mxCell>
        <mxCell id="4AZCgMb4vHLecGoA0_im-50" value="Label" style="edgeLabel;resizable=0;html=1;align=center;verticalAlign=middle;" connectable="0" vertex="1" parent="4AZCgMb4vHLecGoA0_im-49">
          <mxGeometry relative="1" as="geometry" />
        </mxCell>
        <mxCell id="4AZCgMb4vHLecGoA0_im-51" value="Source" style="edgeLabel;resizable=0;html=1;align=left;verticalAlign=bottom;" connectable="0" vertex="1" parent="4AZCgMb4vHLecGoA0_im-49">
          <mxGeometry x="-1" relative="1" as="geometry" />
        </mxCell>
        <mxCell id="4AZCgMb4vHLecGoA0_im-52" value="Target" style="edgeLabel;resizable=0;html=1;align=right;verticalAlign=bottom;" connectable="0" vertex="1" parent="4AZCgMb4vHLecGoA0_im-49">
          <mxGeometry x="1" relative="1" as="geometry" />
        </mxCell>
        <mxCell id="4AZCgMb4vHLecGoA0_im-53" value="Label" style="endArrow=classic;html=1;shadow=1;strokeColor=#D79B00;fontSize=18;" edge="1" parent="1">
          <mxGeometry relative="1" as="geometry">
            <mxPoint x="510" y="459.5" as="sourcePoint" />
            <mxPoint x="670" y="459.5" as="targetPoint" />
            <Array as="points">
              <mxPoint x="550" y="459.5" />
              <mxPoint x="580" y="459.5" />
            </Array>
          </mxGeometry>
        </mxCell>
        <mxCell id="4AZCgMb4vHLecGoA0_im-54" value="Label" style="edgeLabel;resizable=0;html=1;align=center;verticalAlign=middle;" connectable="0" vertex="1" parent="4AZCgMb4vHLecGoA0_im-53">
          <mxGeometry relative="1" as="geometry" />
        </mxCell>
        <mxCell id="4AZCgMb4vHLecGoA0_im-55" value="Source" style="edgeLabel;resizable=0;html=1;align=left;verticalAlign=bottom;" connectable="0" vertex="1" parent="4AZCgMb4vHLecGoA0_im-53">
          <mxGeometry x="-1" relative="1" as="geometry" />
        </mxCell>
        <mxCell id="4AZCgMb4vHLecGoA0_im-56" value="Target" style="edgeLabel;resizable=0;html=1;align=right;verticalAlign=bottom;" connectable="0" vertex="1" parent="4AZCgMb4vHLecGoA0_im-53">
          <mxGeometry x="1" relative="1" as="geometry" />
        </mxCell>
        <mxCell id="4AZCgMb4vHLecGoA0_im-59" value="Label" style="endArrow=classic;html=1;shadow=1;strokeColor=#D79B00;fontSize=18;" edge="1" parent="1">
          <mxGeometry x="-0.0286" y="-9" relative="1" as="geometry">
            <mxPoint x="675" y="510" as="sourcePoint" />
            <mxPoint x="500" y="510" as="targetPoint" />
            <mxPoint as="offset" />
          </mxGeometry>
        </mxCell>
        <mxCell id="4AZCgMb4vHLecGoA0_im-60" value="Label" style="edgeLabel;resizable=0;html=1;align=center;verticalAlign=middle;" connectable="0" vertex="1" parent="4AZCgMb4vHLecGoA0_im-59">
          <mxGeometry relative="1" as="geometry" />
        </mxCell>
        <mxCell id="4AZCgMb4vHLecGoA0_im-61" value="Source" style="edgeLabel;resizable=0;html=1;align=left;verticalAlign=bottom;" connectable="0" vertex="1" parent="4AZCgMb4vHLecGoA0_im-59">
          <mxGeometry x="-1" relative="1" as="geometry" />
        </mxCell>
        <mxCell id="4AZCgMb4vHLecGoA0_im-62" value="Target" style="edgeLabel;resizable=0;html=1;align=right;verticalAlign=bottom;" connectable="0" vertex="1" parent="4AZCgMb4vHLecGoA0_im-59">
          <mxGeometry x="1" relative="1" as="geometry" />
        </mxCell>
        <mxCell id="4AZCgMb4vHLecGoA0_im-63" value="Label" style="endArrow=classic;html=1;shadow=1;strokeColor=#D79B00;fontSize=18;" edge="1" parent="1">
          <mxGeometry x="-0.0286" y="-9" relative="1" as="geometry">
            <mxPoint x="485" y="510" as="sourcePoint" />
            <mxPoint x="310" y="510" as="targetPoint" />
            <mxPoint as="offset" />
          </mxGeometry>
        </mxCell>
        <mxCell id="4AZCgMb4vHLecGoA0_im-64" value="Label" style="edgeLabel;resizable=0;html=1;align=center;verticalAlign=middle;" connectable="0" vertex="1" parent="4AZCgMb4vHLecGoA0_im-63">
          <mxGeometry relative="1" as="geometry" />
        </mxCell>
        <mxCell id="4AZCgMb4vHLecGoA0_im-65" value="Source" style="edgeLabel;resizable=0;html=1;align=left;verticalAlign=bottom;" connectable="0" vertex="1" parent="4AZCgMb4vHLecGoA0_im-63">
          <mxGeometry x="-1" relative="1" as="geometry" />
        </mxCell>
        <mxCell id="4AZCgMb4vHLecGoA0_im-66" value="Target" style="edgeLabel;resizable=0;html=1;align=right;verticalAlign=bottom;" connectable="0" vertex="1" parent="4AZCgMb4vHLecGoA0_im-63">
          <mxGeometry x="1" relative="1" as="geometry" />
        </mxCell>
      </root>
    </mxGraphModel>
  </diagram>
</mxfile>
